<mxfile host="www.draw.io" modified="2020-01-06T02:54:10.661Z" agent="Mozilla/5.0 (Windows NT 10.0; Win64; x64) AppleWebKit/537.36 (KHTML, like Gecko) Chrome/79.0.3945.88 Safari/537.36" etag="WX8kF6CRLbqrkSWeJZ3_" version="12.4.8" type="github">
  <diagram name="Page-1" id="e7e014a7-5840-1c2e-5031-d8a46d1fe8dd">
    <mxGraphModel dx="1038" dy="548" grid="1" gridSize="10" guides="1" tooltips="1" connect="1" arrows="1" fold="1" page="1" pageScale="1" pageWidth="1169" pageHeight="826" background="#ffffff" math="0" shadow="0">
      <root>
        <mxCell id="0"/>
        <mxCell id="1" parent="0"/>
        <mxCell id="2" value="Thread 1" style="swimlane;whiteSpace=wrap" parent="1" vertex="1">
          <mxGeometry x="164.5" y="128" width="280.5" height="570" as="geometry"/>
        </mxCell>
        <mxCell id="5" value="丁" style="ellipse;shape=startState;fillColor=#000000;strokeColor=#ff0000;" parent="2" vertex="1">
          <mxGeometry x="100" y="40" width="30" height="30" as="geometry"/>
        </mxCell>
        <mxCell id="6" value="" style="edgeStyle=elbowEdgeStyle;elbow=horizontal;verticalAlign=bottom;endArrow=open;endSize=8;strokeColor=#FF0000;endFill=1;rounded=0" parent="2" source="5" target="7" edge="1">
          <mxGeometry x="100" y="40" as="geometry">
            <mxPoint x="115" y="110" as="targetPoint"/>
          </mxGeometry>
        </mxCell>
        <mxCell id="7" value="订单验证/公司验证" style="" parent="2" vertex="1">
          <mxGeometry x="60" y="110" width="110" height="50" as="geometry"/>
        </mxCell>
        <mxCell id="8" value="是否当前项目权限&#xa;是否有修改项目的权限" style="" parent="2" vertex="1">
          <mxGeometry x="40" y="220" width="150" height="50" as="geometry"/>
        </mxCell>
        <mxCell id="9" value="" style="endArrow=open;strokeColor=#FF0000;endFill=1;rounded=0" parent="2" source="7" target="8" edge="1">
          <mxGeometry relative="1" as="geometry"/>
        </mxCell>
        <mxCell id="10" value="更新项目code" style="" parent="2" vertex="1">
          <mxGeometry x="60" y="325" width="110" height="50" as="geometry"/>
        </mxCell>
        <mxCell id="11" value="" style="endArrow=open;strokeColor=#FF0000;endFill=1;rounded=0" parent="2" source="8" target="10" edge="1">
          <mxGeometry relative="1" as="geometry"/>
        </mxCell>
        <mxCell id="3QvHoRK9Mrfd_KoeYsmz-41" value="是否该公司订单&amp;amp;&amp;amp;公司是否项目制公司" style="ellipse;shape=cloud;whiteSpace=wrap;html=1;" vertex="1" parent="2">
          <mxGeometry x="130" y="40" width="150.5" height="90" as="geometry"/>
        </mxCell>
        <mxCell id="3QvHoRK9Mrfd_KoeYsmz-43" value="乐观锁更新&lt;br&gt;order，&lt;br&gt;order_settle,&lt;br&gt;waybill" style="ellipse;shape=cloud;whiteSpace=wrap;html=1;" vertex="1" parent="2">
          <mxGeometry x="55.5" y="375" width="169.5" height="145" as="geometry"/>
        </mxCell>
        <mxCell id="3" value="" style="swimlane;whiteSpace=wrap" parent="1" vertex="1">
          <mxGeometry x="444.5" y="128" width="280" height="570" as="geometry"/>
        </mxCell>
        <mxCell id="3QvHoRK9Mrfd_KoeYsmz-44" value="申诉服务" style="html=1;" vertex="1" parent="3">
          <mxGeometry x="75.5" y="212" width="110" height="50" as="geometry"/>
        </mxCell>
        <mxCell id="3QvHoRK9Mrfd_KoeYsmz-45" value="发票服务" style="html=1;" vertex="1" parent="3">
          <mxGeometry x="75.5" y="332" width="110" height="50" as="geometry"/>
        </mxCell>
        <mxCell id="3QvHoRK9Mrfd_KoeYsmz-46" value="返利服务" style="html=1;" vertex="1" parent="3">
          <mxGeometry x="75.5" y="442" width="110" height="50" as="geometry"/>
        </mxCell>
        <mxCell id="20" value="消息广播" style="endArrow=open;strokeColor=#FF0000;endFill=1;rounded=0;dashed=1;" parent="1" source="10" edge="1">
          <mxGeometry relative="1" as="geometry">
            <mxPoint x="464.5" y="478" as="targetPoint"/>
          </mxGeometry>
        </mxCell>
        <mxCell id="3QvHoRK9Mrfd_KoeYsmz-47" value="Actor" style="shape=umlActor;verticalLabelPosition=bottom;labelBackgroundColor=#ffffff;verticalAlign=top;html=1;" vertex="1" parent="1">
          <mxGeometry x="70" y="160" width="30" height="60" as="geometry"/>
        </mxCell>
        <mxCell id="3QvHoRK9Mrfd_KoeYsmz-48" value="修改项目编码" style="shape=singleArrow;whiteSpace=wrap;html=1;" vertex="1" parent="1">
          <mxGeometry x="120" y="160" width="100" height="60" as="geometry"/>
        </mxCell>
      </root>
    </mxGraphModel>
  </diagram>
</mxfile>
